<svg width="389" height="265" viewBox="0 0 389 265" fill="none" xmlns="http://www.w3.org/2000/svg">
<path d="M50.2029 189.76V198.781H72.1533V212.161H50.2029V229H32.4623V176.379H75.2354V189.76H50.2029ZM108.061 230.203C102.398 230.203 97.3114 229.025 92.801 226.67C88.2907 224.314 84.7576 221.057 82.2017 216.897C79.6459 212.688 78.3679 207.952 78.3679 202.69C78.3679 197.428 79.6459 192.717 82.2017 188.557C84.7576 184.348 88.2907 181.065 92.801 178.71C97.3114 176.354 102.398 175.177 108.061 175.177C113.724 175.177 118.811 176.354 123.321 178.71C127.831 181.065 131.364 184.348 133.92 188.557C136.476 192.717 137.754 197.428 137.754 202.69C137.754 207.952 136.476 212.688 133.92 216.897C131.364 221.057 127.831 224.314 123.321 226.67C118.811 229.025 113.724 230.203 108.061 230.203ZM108.061 215.845C110.266 215.845 112.246 215.319 114 214.266C115.804 213.164 117.232 211.635 118.284 209.681C119.337 207.676 119.863 205.346 119.863 202.69C119.863 200.034 119.337 197.728 118.284 195.774C117.232 193.769 115.804 192.241 114 191.188C112.246 190.086 110.266 189.534 108.061 189.534C105.856 189.534 103.851 190.086 102.047 191.188C100.293 192.241 98.89 193.769 97.8376 195.774C96.7852 197.728 96.259 200.034 96.259 202.69C96.259 205.346 96.7852 207.676 97.8376 209.681C98.89 211.635 100.293 213.164 102.047 214.266C103.851 215.319 105.856 215.845 108.061 215.845ZM171.781 230.203C166.118 230.203 161.032 229.025 156.521 226.67C152.011 224.314 148.478 221.057 145.922 216.897C143.366 212.688 142.088 207.952 142.088 202.69C142.088 197.428 143.366 192.717 145.922 188.557C148.478 184.348 152.011 181.065 156.521 178.71C161.032 176.354 166.118 175.177 171.781 175.177C177.444 175.177 182.531 176.354 187.041 178.71C191.552 181.065 195.085 184.348 197.641 188.557C200.197 192.717 201.475 197.428 201.475 202.69C201.475 207.952 200.197 212.688 197.641 216.897C195.085 221.057 191.552 224.314 187.041 226.67C182.531 229.025 177.444 230.203 171.781 230.203ZM171.781 215.845C173.986 215.845 175.966 215.319 177.72 214.266C179.524 213.164 180.952 211.635 182.005 209.681C183.057 207.676 183.583 205.346 183.583 202.69C183.583 200.034 183.057 197.728 182.005 195.774C180.952 193.769 179.524 192.241 177.72 191.188C175.966 190.086 173.986 189.534 171.781 189.534C169.576 189.534 167.572 190.086 165.768 191.188C164.014 192.241 162.61 193.769 161.558 195.774C160.506 197.728 159.979 200.034 159.979 202.69C159.979 205.346 160.506 207.676 161.558 209.681C162.61 211.635 164.014 213.164 165.768 214.266C167.572 215.319 169.576 215.845 171.781 215.845ZM207.913 176.379H233.848C239.711 176.379 244.873 177.457 249.333 179.612C253.844 181.717 257.327 184.749 259.782 188.708C262.288 192.667 263.541 197.327 263.541 202.69C263.541 208.052 262.288 212.713 259.782 216.672C257.327 220.631 253.844 223.688 249.333 225.843C244.873 227.948 239.711 229 233.848 229H207.913V176.379ZM233.096 215.168C236.905 215.168 239.937 214.091 242.192 211.936C244.497 209.731 245.65 206.649 245.65 202.69C245.65 198.731 244.497 195.674 242.192 193.519C239.937 191.314 236.905 190.211 233.096 190.211H225.654V215.168H233.096ZM270.019 176.379H287.76V215.243H311.514V229H270.019V176.379ZM342.4 209.906V229H324.66V209.681L304.814 176.379H323.532L334.282 194.571L345.107 176.379H362.246L342.4 209.906Z" fill="#24201D"/>
<path d="M238.222 0H157.333C154.756 0 152.667 2.08934 152.667 4.66676V122.889C152.667 125.466 154.756 127.556 157.333 127.556H165.111V135.334C165.111 137.911 167.2 140 169.778 140C172.355 140 174.444 137.911 174.444 135.334V127.556H238.222C247.657 127.556 255.333 119.88 255.333 110.445V17.1112C255.333 7.67594 247.657 0 238.222 0ZM246 110.444C246 114.733 242.511 118.222 238.222 118.222H162V9.33324H238.222C242.511 9.33324 246 12.8223 246 17.1109V110.444Z" fill="#24201D"/>
<path d="M230.033 48.8898C227.226 46.7157 223.905 45.4976 220.475 45.3182C219.719 42.6194 218.299 40.1374 216.291 38.0653C213.037 34.7083 208.672 32.8598 204 32.8598C199.328 32.8598 194.963 34.7083 191.71 38.0647C189.701 40.1371 188.282 42.6194 187.526 45.3182C184.097 45.4973 180.775 46.7154 177.97 48.8887C173.752 52.1549 171.333 57.0853 171.333 62.4151C171.333 70.233 176.603 76.8433 183.778 78.8793V90.0288C183.778 92.6059 185.867 94.6955 188.444 94.6955H219.556C222.133 94.6955 224.222 92.6062 224.222 90.0288V78.8793C231.397 76.8431 236.667 70.233 236.667 62.4151C236.667 57.0853 234.249 52.1552 230.033 48.8898ZM219.556 70.1933C216.978 70.1933 214.889 72.2827 214.889 74.8601V85.3628H193.111V74.8601C193.111 72.2829 191.022 70.1933 188.444 70.1933C184.156 70.1933 180.667 66.7043 180.667 62.4157C180.667 59.9944 181.767 57.7533 183.685 56.2683C185.301 55.0167 187.292 54.4647 189.283 54.6834L190.406 55.8062C191.317 56.7175 192.512 57.1731 193.706 57.1731C194.9 57.1731 196.094 56.7175 197.005 55.8062C198.828 53.9837 198.828 51.0289 197.005 49.2065L196.354 48.5554C196.627 47.0578 197.33 45.6769 198.412 44.5608C199.891 43.0342 201.876 42.1936 204 42.1936C206.124 42.1936 208.109 43.0344 209.589 44.5619C210.67 45.6775 211.373 47.0578 211.645 48.5557L211.091 49.1102C209.268 50.9327 209.268 53.8874 211.091 55.7099C212.002 56.6213 213.197 57.0768 214.39 57.0768C215.584 57.0768 216.779 56.6213 217.69 55.7099L218.716 54.684C220.707 54.4652 222.699 55.0176 224.316 56.2696C226.233 57.7538 227.332 59.9947 227.332 62.4162C227.333 66.704 223.844 70.1933 219.556 70.1933Z" fill="#24201D"/>
</svg>
